<svg width="97" height="25" viewBox="0 0 97 25" fill="none" xmlns="http://www.w3.org/2000/svg">
<path fill-rule="evenodd" clip-rule="evenodd" d="M0 7.60044V7.66258L16.3985 14.3449L32.8549 7.63976V7.62277L16.3985 0.918073L0 7.60044ZM5.91204 7.63151L16.3991 3.35817L26.8872 7.63151L16.3985 11.9044L5.91204 7.63151V7.63151ZM16.3985 16.9404L0 10.3581V12.7923L16.3985 19.3902L32.8549 12.77V10.3352L16.3985 16.9404ZM16.3985 21.8779L0 15.2946V17.7293L16.3985 24.3277L32.8549 17.7075V15.2732L16.3985 21.8779ZM93.2611 12.3816C93.2706 11.3215 92.8202 10.2983 92.0017 9.52106C91.6169 9.15775 91.1535 8.8659 90.6388 8.6627C90.1164 8.45621 89.5497 8.35091 88.9771 8.35393C88.4045 8.35091 87.8379 8.45621 87.3154 8.6627C86.8007 8.86589 86.3373 9.15774 85.9525 9.52106C85.134 10.2984 84.6835 11.3219 84.6931 12.3821C84.6834 13.4423 85.1339 14.4658 85.9525 15.2431C86.3373 15.6063 86.8007 15.8979 87.3154 16.101C87.8378 16.3077 88.4045 16.4131 88.9771 16.4102C89.5497 16.4131 90.1164 16.3077 90.6388 16.101C91.1535 15.8979 91.6169 15.6062 92.0017 15.2431C92.8203 14.4658 93.2708 13.4423 93.2611 12.3821V12.3816ZM97 12.3816C97 13.374 96.7922 14.293 96.3772 15.1397C95.9781 15.9656 95.3953 16.7127 94.6632 17.3371C93.9362 17.9551 93.0836 18.4435 92.1059 18.8018C91.1276 19.1606 90.0849 19.3397 88.9771 19.3397C87.8693 19.3397 86.831 19.1601 85.8615 18.8018C84.9148 18.4564 84.0512 17.9556 83.3169 17.3259C82.5864 16.6959 82.0039 15.9453 81.6029 15.1169C81.1879 14.2702 80.9801 13.3584 80.9801 12.3821C80.9801 11.4208 81.1923 10.5168 81.6161 9.6701C82.0269 8.84039 82.6128 8.08697 83.3428 7.44993C84.0742 6.81419 84.9383 6.30906 85.8874 5.96237C86.8569 5.60359 87.8864 5.42444 88.9771 5.42444C90.0849 5.42444 91.1276 5.60359 92.1059 5.96237C93.0836 6.32067 93.9362 6.80908 94.6632 7.42711C95.3907 8.04466 95.9617 8.78116 96.3772 9.63563C96.7922 10.4901 97 11.4053 97 12.3821V12.3816ZM79.6822 18.9275C79.3618 19.0575 79.0267 19.1572 78.6824 19.2251C78.3036 19.3022 77.916 19.3406 77.5273 19.3397C76.9734 19.3397 76.441 19.2747 75.9301 19.1455C75.4375 19.0243 74.9811 18.8093 74.593 18.5158C74.2127 18.226 73.9096 17.8483 73.6842 17.3827C73.4593 16.9176 73.3469 16.3568 73.3469 15.7004V0H77.1635V15.128C77.1635 15.6776 77.2892 16.0553 77.5399 16.2612C77.7912 16.4675 78.0894 16.5705 78.4355 16.5705C78.8687 16.5705 79.2843 16.4559 79.6822 16.2272V18.9275V18.9275ZM71.6588 5.74487L64.9079 21.4681C64.4063 22.643 63.7483 23.4897 62.9348 24.0087C62.1213 24.5272 61.1519 24.787 60.0265 24.787C59.8355 24.7859 59.6448 24.7744 59.4555 24.7525C59.254 24.7307 59.0546 24.6963 58.8586 24.6496L57.6119 21.5827C57.9037 21.7041 58.2083 21.8 58.5213 21.8692C58.8094 21.9349 59.1055 21.9693 59.4031 21.9716C59.9923 21.9716 60.5286 21.8536 61.0136 21.6172C61.498 21.3803 61.87 20.9419 62.1296 20.301L62.6493 18.9737L56.8591 5.74487H60.9353L64.3887 14.2585L67.6344 5.74487H71.6588V5.74487ZM55.9503 3.75337H46.1885V8.01068H55.8213V10.8945H46.1885V18.9965H42.2424V0.709795H55.9508V3.75385L55.9503 3.75337Z" fill="white"/>
</svg>
