<svg width="111" height="33" viewBox="0 0 111 33" fill="none" xmlns="http://www.w3.org/2000/svg">
<path fill-rule="evenodd" clip-rule="evenodd" d="M0 10.0535V10.1357L18.7653 18.9748L37.5968 10.1055V10.083L18.7653 1.21438L0 10.0535ZM6.76532 10.0946L18.7659 4.44203L30.7678 10.0946L18.7653 15.7465L6.76532 10.0946V10.0946ZM18.7653 22.4079L0 13.7011V16.9211L18.7653 25.6484L37.5968 16.8915V13.6709L18.7653 22.4079ZM18.7653 28.939L0 20.2309V23.4515L18.7653 32.1795L37.5968 23.4226V20.2026L18.7653 28.939ZM106.721 16.3778C106.732 14.9755 106.217 13.622 105.28 12.594C104.84 12.1134 104.31 11.7274 103.721 11.4586C103.123 11.1855 102.474 11.0462 101.819 11.0502C101.164 11.0462 100.515 11.1855 99.9177 11.4586C99.3286 11.7274 98.7983 12.1134 98.358 12.594C97.4214 13.6222 96.9059 14.976 96.9169 16.3784C96.9058 17.7808 97.4213 19.1346 98.358 20.1628C98.7984 20.6432 99.3287 21.029 99.9177 21.2976C100.515 21.571 101.164 21.7105 101.819 21.7067C102.474 21.7105 103.123 21.571 103.721 21.2976C104.31 21.029 104.84 20.6432 105.28 20.1628C106.217 19.1346 106.733 17.7808 106.721 16.3784V16.3778ZM111 16.3778C111 17.6904 110.762 18.9061 110.287 20.026C109.831 21.1185 109.164 22.1068 108.326 22.9326C107.494 23.7501 106.518 24.3961 105.4 24.8701C104.28 25.3447 103.087 25.5816 101.819 25.5816C100.551 25.5816 99.3633 25.344 98.2539 24.8701C97.1705 24.4133 96.1823 23.7507 95.3421 22.9178C94.5061 22.0845 93.8396 21.0916 93.3806 19.9959C92.9057 18.8759 92.668 17.6698 92.668 16.3784C92.668 15.1069 92.9108 13.9111 93.3958 12.7911C93.8658 11.6936 94.5363 10.697 95.3717 9.8544C96.2086 9.01347 97.1974 8.34531 98.2836 7.88673C99.3929 7.41215 100.571 7.17518 101.819 7.17518C103.087 7.17518 104.28 7.41215 105.4 7.88673C106.518 8.36067 107.494 9.00671 108.326 9.82422C109.158 10.6411 109.812 11.6153 110.287 12.7455C110.762 13.8758 111 15.0863 111 16.3784V16.3778ZM91.1827 25.0364C90.816 25.2083 90.4326 25.3402 90.0387 25.4301C89.6052 25.5319 89.1616 25.5828 88.7167 25.5816C88.0829 25.5816 87.4737 25.4956 86.889 25.3247C86.3254 25.1643 85.8031 24.88 85.359 24.4918C84.9238 24.1084 84.577 23.6088 84.319 22.993C84.0617 22.3777 83.933 21.636 83.933 20.7678V0H88.3005V20.0106C88.3005 20.7376 88.4443 21.2372 88.7313 21.5095C89.0188 21.7824 89.36 21.9186 89.7561 21.9186C90.2518 21.9186 90.7274 21.767 91.1827 21.4645V25.0364V25.0364ZM82.0013 7.59903L74.276 28.397C73.7021 29.9511 72.9491 31.0711 72.0182 31.7576C71.0873 32.4434 69.9779 32.787 68.6901 32.787C68.4716 32.7855 68.2534 32.7703 68.0367 32.7414C67.8061 32.7125 67.5779 32.667 67.3537 32.6052L65.9271 28.5485C66.261 28.7091 66.6095 28.836 66.9677 28.9274C67.2974 29.0144 67.6362 29.0599 67.9768 29.0629C68.651 29.0629 69.2646 28.9069 69.8196 28.5941C70.374 28.2807 70.7997 27.7008 71.0968 26.8532L71.6915 25.0974L65.0656 7.59903H69.7301L73.6819 18.8605L77.396 7.59903H82.0013V7.59903ZM64.0256 4.96477H52.8549V10.5961H63.878V14.4107H52.8549V25.1276H48.3392V0.938881H64.0262V4.96541L64.0256 4.96477Z" fill="white"/>
</svg>
